<mxfile host="Electron" modified="2024-11-20T09:09:30.251Z" agent="Mozilla/5.0 (Windows NT 10.0; Win64; x64) AppleWebKit/537.36 (KHTML, like Gecko) draw.io/21.7.5 Chrome/114.0.5735.289 Electron/25.8.1 Safari/537.36" etag="Vsr5HB6q6S676W5yTSJF" version="21.7.5" type="device" pages="2">
  <diagram name="E-Shape" id="Vu7TUwQlY-5lKJpmts53">
    <mxGraphModel dx="1034" dy="700" grid="1" gridSize="10" guides="1" tooltips="1" connect="1" arrows="1" fold="1" page="1" pageScale="1" pageWidth="1169" pageHeight="827" math="0" shadow="0">
      <root>
        <mxCell id="0" />
        <mxCell id="1" parent="0" />
        <mxCell id="6c7hojjBbMv1zZxFanAM-1" value="Expertise" style="rounded=0;whiteSpace=wrap;html=1;fontSize=16;fontStyle=1;strokeColor=none;gradientColor=none;fillColor=#FE5000;fontColor=#FFFFFF;" parent="1" vertex="1">
          <mxGeometry x="80" y="40" width="100" height="40" as="geometry" />
        </mxCell>
        <mxCell id="6c7hojjBbMv1zZxFanAM-2" value="Execution" style="rounded=0;whiteSpace=wrap;html=1;fontSize=16;fontStyle=1;strokeColor=none;gradientColor=none;fillColor=#FE5000;fontColor=#FFFFFF;" parent="1" vertex="1">
          <mxGeometry x="80" y="120" width="100" height="40" as="geometry" />
        </mxCell>
        <mxCell id="6c7hojjBbMv1zZxFanAM-3" value="Exploration" style="rounded=0;whiteSpace=wrap;html=1;fontSize=16;fontStyle=1;strokeColor=none;gradientColor=none;fillColor=#FE5000;fontColor=#FFFFFF;" parent="1" vertex="1">
          <mxGeometry x="80" y="200" width="100" height="40" as="geometry" />
        </mxCell>
        <mxCell id="6c7hojjBbMv1zZxFanAM-4" value="Experience" style="rounded=0;whiteSpace=wrap;html=1;rotation=-90;fontSize=16;fontStyle=1;labelBorderColor=none;strokeColor=none;gradientColor=none;fillColor=#FE5000;fontColor=#FFFFFF;" parent="1" vertex="1">
          <mxGeometry x="-40" y="120" width="200" height="40" as="geometry" />
        </mxCell>
      </root>
    </mxGraphModel>
  </diagram>
  <diagram id="LNBdoVzVMrujYsZZkX3G" name="T-Shape">
    <mxGraphModel dx="1034" dy="700" grid="1" gridSize="10" guides="1" tooltips="1" connect="1" arrows="1" fold="1" page="1" pageScale="1" pageWidth="1169" pageHeight="827" math="0" shadow="0">
      <root>
        <mxCell id="0" />
        <mxCell id="1" parent="0" />
        <mxCell id="1M0uNTCtjzoGKe_8rnzf-1" value="Breath of Cross-discipline Competence" style="rounded=0;whiteSpace=wrap;html=1;strokeColor=none;fillColor=#FE5000;fontColor=#FFFFFF;fontStyle=1;fontSize=16;" parent="1" vertex="1">
          <mxGeometry x="80" y="40" width="240" height="70" as="geometry" />
        </mxCell>
        <mxCell id="1M0uNTCtjzoGKe_8rnzf-2" value="Depth of Discipline Expertise" style="rounded=0;whiteSpace=wrap;html=1;strokeColor=none;fillColor=#FE5000;fontColor=#FFFFFF;fontStyle=1;fontSize=16;rotation=90;" parent="1" vertex="1">
          <mxGeometry x="130.46" y="130" width="139.07" height="80" as="geometry" />
        </mxCell>
        <mxCell id="e5TCR4G6Gd8DSOlAH5jk-1" value="" style="triangle;whiteSpace=wrap;html=1;fillColor=#FE5000;strokeColor=none;" vertex="1" parent="1">
          <mxGeometry x="320" y="30" width="60" height="90" as="geometry" />
        </mxCell>
        <mxCell id="e5TCR4G6Gd8DSOlAH5jk-2" value="" style="triangle;whiteSpace=wrap;html=1;fillColor=#FE5000;strokeColor=none;rotation=-180;" vertex="1" parent="1">
          <mxGeometry x="20" y="30" width="60" height="90" as="geometry" />
        </mxCell>
        <mxCell id="e5TCR4G6Gd8DSOlAH5jk-3" value="" style="triangle;whiteSpace=wrap;html=1;fillColor=#FE5000;strokeColor=none;rotation=90;" vertex="1" parent="1">
          <mxGeometry x="170" y="220" width="60" height="90" as="geometry" />
        </mxCell>
      </root>
    </mxGraphModel>
  </diagram>
</mxfile>
